<?xml version="1.0" encoding="iso-8859-1"?>
<!-- Generator: Adobe Illustrator 19.0.0, SVG Export Plug-In . SVG Version: 6.00 Build 0)  -->
<svg version="1.1" id="Layer_1" xmlns="http://www.w3.org/2000/svg" xmlns:xlink="http://www.w3.org/1999/xlink" x="0px" y="0px"
	 viewBox="0 0 502.368 502.368" style="enable-background:new 0 0 502.368 502.368;" xml:space="preserve">
<g>
	<path style="fill:#FFD15C;" d="M184.956,74.596c0,0,15.673,34.482-10.449,70.008c-6.269,8.359-11.494,17.763-13.584,28.212
		c-3.135,14.629-2.09,35.527,18.808,51.2c0,0-13.584-34.482,15.673-71.053c5.224-7.314,9.404-14.629,11.494-22.988
		C211.078,114.303,210.033,92.36,184.956,74.596z"/>
	<path style="fill:#FFD15C;" d="M249.739,52.654c0,0,20.898,44.931-13.584,89.861c-8.359,10.449-14.629,22.988-17.763,35.527
		c-4.18,19.853-2.09,44.931,24.033,66.873c0,0-16.718-44.931,19.853-91.951c7.314-8.359,12.539-18.808,14.629-30.302
		C283.176,103.854,282.131,75.641,249.739,52.654z"/>
	<path style="fill:#FFD15C;" d="M313.478,74.596c0,0,15.673,34.482-10.449,70.008c-6.269,8.359-11.494,17.763-13.584,28.212
		c-3.135,14.629-2.09,35.527,18.808,51.2c0,0-13.584-34.482,15.673-71.053c5.225-7.314,9.404-14.629,11.494-22.988
		C339.601,114.303,338.556,92.36,313.478,74.596z"/>
	<path style="fill:#FFD15C;" d="M402.294,294.025c-3.135,2.09-5.224,3.135-8.359,6.269c-20.898,17.763-36.571,40.751-44.931,61.649
		c-1.045,2.09-2.09,3.135-4.18,3.135c-3.135,0-5.224-3.135-4.18-5.224c6.269-22.988,18.808-49.11,37.616-71.053
		c-18.808-4.18-37.616-7.314-58.514-9.404c-4.18,3.135-8.359,6.269-12.539,9.404c-20.898,17.763-36.571,40.751-44.931,61.649
		c-1.045,2.09-2.09,3.135-4.18,3.135c-3.135,0-5.224-3.135-4.18-5.224c6.269-22.988,17.763-48.065,36.571-71.053
		c-12.539-1.045-25.078-1.045-37.616-1.045c-5.224,4.18-11.494,7.314-16.718,12.539c-20.898,17.763-36.571,40.751-44.931,61.649
		c-1.045,2.09-2.09,3.135-4.18,3.135c-3.135,0-5.225-3.135-4.18-5.224c6.269-22.988,17.763-48.065,36.571-70.008
		c-13.584,1.045-27.167,2.09-40.751,4.18c-10.449,5.224-19.853,11.494-29.257,19.853c-20.898,17.763-36.571,40.751-44.931,61.649
		c-1.045,2.09-2.09,3.135-4.18,3.135c-3.135,0-5.224-3.135-4.18-5.224c6.269-22.988,17.763-48.065,36.571-70.008
		c-45.976,10.449-84.637,27.167-106.58,49.11c-32.392,32.392-34.482,67.918-7.314,100.31c4.18,5.224,10.449,8.359,16.718,8.359
		h432.588c7.314,0,13.584-3.135,17.763-9.404c24.033-34.482,21.943-63.739-7.314-99.265
		C460.809,318.058,434.686,304.474,402.294,294.025z"/>
</g>
<path style="fill:#F8B64C;" d="M4.188,418.368c3.135,6.269,7.314,12.539,12.539,18.808c4.18,5.225,10.449,8.359,16.718,8.359
	h432.588c7.314,0,13.584-3.135,17.763-9.404c4.18-6.269,7.314-12.539,10.449-17.763L4.188,418.368L4.188,418.368z"/>
<g>
</g>
<g>
</g>
<g>
</g>
<g>
</g>
<g>
</g>
<g>
</g>
<g>
</g>
<g>
</g>
<g>
</g>
<g>
</g>
<g>
</g>
<g>
</g>
<g>
</g>
<g>
</g>
<g>
</g>
</svg>
