<?xml version="1.0" encoding="iso-8859-1"?>
<!-- Generator: Adobe Illustrator 19.0.0, SVG Export Plug-In . SVG Version: 6.00 Build 0)  -->
<svg xmlns="http://www.w3.org/2000/svg" xmlns:xlink="http://www.w3.org/1999/xlink" version="1.1" id="Layer_1" x="0px" y="0px" viewBox="0 0 434.695 434.695" style="enable-background:new 0 0 434.695 434.695;" xml:space="preserve" width="512" height="512">
<g>
	<path style="fill:#F7B239;" d="M427.191,274.936v19.22c0,22.86-18.53,41.4-41.4,41.4H48.911c-22.87,0-41.41-18.54-41.41-41.4   v-19.22c0-8.7,7.06-15.76,15.76-15.76h0.82h91.83l31.5,31.5l31.5-31.5h231.7h0.83C420.141,259.176,427.191,266.236,427.191,274.936   z"/>
	<path style="fill:#F7B239;" d="M427.191,177.416c0,8.71-7.05,15.76-15.75,15.76h-0.83H24.081h-0.82c-4.35,0-8.29-1.76-11.14-4.61   c-2.85-2.85-4.62-6.79-4.62-11.15c0-34.86,22.79-64.4,54.29-74.52l42.78,42.78c7.62,7.61,19.96,7.61,27.58,0   c7.61-7.62,7.61-19.96,0-27.58l-18.95-18.95h57.4l46.53,46.53c7.62,7.61,19.96,7.61,27.58,0c7.61-7.62,7.61-19.96,0-27.58   l-18.95-18.95h57.4l46.53,46.53c7.61,7.61,19.96,7.61,27.58,0c7.61-7.62,7.61-19.96,0-27.58l-18.95-18.95h10.6   c21.61,0,41.18,8.76,55.35,22.92C418.431,136.236,427.191,155.796,427.191,177.416z"/>
	<path style="fill:#E09B2D;" d="M115.581,335.556h-66.67c-22.87,0-41.41-18.54-41.41-41.4v-19.22c0-8.7,7.06-15.76,15.76-15.76   h66.67c-8.7,0-15.76,7.06-15.76,15.76v19.22C74.171,317.016,92.711,335.556,115.581,335.556z"/>
	<path style="fill:#E09B2D;" d="M78.791,188.566c2.85,2.85,6.79,4.61,11.14,4.61h-66.67c-4.35,0-8.29-1.76-11.14-4.61   c-2.85-2.85-4.62-6.79-4.62-11.15c0-34.86,22.79-64.4,54.29-74.52l27.83,27.83c-9.71,13.04-15.45,29.19-15.45,46.69   C74.171,181.776,75.941,185.716,78.791,188.566z"/>
	<path style="fill:#F7B239;" d="M160.721,147.816c-7.61,5.39-18.22,4.67-25.03-2.14l-46.52-46.52c21.25,0.24,40.46,8.95,54.43,22.91   C150.901,129.366,156.761,138.106,160.721,147.816z"/>
	<path style="fill:#F7B239;" d="M89.171,99.156c-0.31-0.01-0.61-0.01-0.92-0.01h0.91L89.171,99.156z"/>
	<polygon style="fill:#9AD14B;" points="410.611,226.176 410.611,259.176 178.911,259.176 211.901,226.176  "/>
	<polygon style="fill:#F95428;" points="410.611,193.176 410.611,226.176 211.901,226.176 82.911,226.176 24.081,226.176    24.081,193.176  "/>
	<polygon style="fill:#E54728;" points="73.277,193.176 73.277,226.176 47.986,226.176 31.568,226.176 24.081,226.176    24.081,193.176  "/>
	<path style="fill:#B27214;" d="M357.271,118.096c7.61,7.62,7.61,19.96,0,27.58c-7.62,7.61-19.97,7.61-27.58,0l-46.53-46.53h55.16   L357.271,118.096z"/>
	<path style="fill:#B27214;" d="M244.711,118.096c7.61,7.62,7.61,19.96,0,27.58c-7.62,7.61-19.96,7.61-27.58,0l-46.53-46.53h55.16   L244.711,118.096z"/>
	<polygon style="fill:#F4DE3B;" points="211.901,226.176 178.911,259.176 147.411,290.676 115.911,259.176 82.911,226.176  "/>
	<path style="fill:#B27214;" d="M132.151,118.096c7.61,7.62,7.61,19.96,0,27.58c-7.62,7.61-19.96,7.61-27.58,0l-42.78-42.78   c7.56-2.44,15.62-3.75,23.99-3.75h27.42L132.151,118.096z"/>
	<polygon style="fill:#9AD14B;" points="115.911,259.176 24.081,259.176 24.081,226.176 82.911,226.176  "/>
	<polygon style="fill:#90BC42;" points="73.277,224.51 73.277,257.51 47.986,257.51 31.568,257.51 24.081,257.51 24.081,224.51  "/>
	<path style="fill:#FFFFFF;" d="M402.775,172.429c-3.417,0-6.505-2.35-7.303-5.822c-1.991-8.662-6.405-16.605-12.765-22.97   c-0.641-0.64-1.306-1.269-1.972-1.864c-3.088-2.76-3.354-7.501-0.594-10.59c2.761-3.088,7.501-3.354,10.59-0.594   c0.871,0.779,1.74,1.6,2.581,2.44c8.357,8.363,14.158,18.811,16.779,30.219c0.928,4.037-1.593,8.062-5.63,8.989   C403.897,172.367,403.332,172.429,402.775,172.429z M310.892,166.904c-1.919,0-3.839-0.732-5.303-2.197l-18.165-18.165   c-2.929-2.929-2.929-7.678,0-10.606c2.929-2.929,7.678-2.93,10.606,0l18.165,18.165c2.929,2.929,2.929,7.678,0,10.606   C314.73,166.172,312.811,166.904,310.892,166.904z M194.947,163.52c-1.919,0-3.839-0.732-5.303-2.197l-18.503-18.503   c-2.929-2.929-2.929-7.678,0-10.606c2.929-2.929,7.678-2.929,10.606,0l18.503,18.503c2.929,2.929,2.929,7.678,0,10.606   C198.786,162.787,196.866,163.52,194.947,163.52z"/>
	<circle style="fill:#FFFFFF;" cx="161.074" cy="122.146" r="7.5"/>
	<circle style="fill:#FFFFFF;" cx="278.407" cy="126.813" r="7.5"/>
	<path style="fill:#FFFFFF;" d="M406.684,308.45c-4.142,0-7.5-3.358-7.5-7.5v-20c0-4.142,3.358-7.5,7.5-7.5s7.5,3.358,7.5,7.5v20   C414.184,305.092,410.826,308.45,406.684,308.45z"/>
	<path style="fill:#333333;" d="M418.11,252.653l0.004-52.957c9.579-2.878,16.58-11.773,16.58-22.277   c0-47.297-38.479-85.776-85.776-85.776H85.781c-47.297,0-85.776,38.479-85.776,85.776c0,10.503,7.001,19.399,16.58,22.277   l-0.004,52.959C7.001,255.532,0,264.428,0,274.932v19.22c0,26.963,21.941,48.9,48.91,48.9h336.88c26.963,0,48.9-21.937,48.9-48.9   v-19.22C434.69,264.426,427.689,255.528,418.11,252.653z M403.115,218.672H31.584v-17.995h371.53V218.672z M31.58,233.676h48.227   l17.996,17.996H31.58V233.676z M101.02,233.676h92.774l-46.384,46.39L101.02,233.676z M215.006,233.676H403.11v17.996H197.012   L215.006,233.676z M351.97,140.366c-4.685,4.678-12.3,4.68-16.977,0.003l-33.726-33.727h33.947l16.749,16.75   C356.639,128.074,356.639,135.691,351.97,140.366z M239.403,123.392c4.675,4.682,4.675,12.299,0.007,16.974   c-4.682,4.676-12.299,4.675-16.977,0.003l-33.726-33.727h33.947L239.403,123.392z M110.094,106.643l16.749,16.75   c4.675,4.682,4.675,12.299,0.007,16.974c-4.682,4.675-12.299,4.675-16.977,0.003l-33.13-33.13c2.962-0.379,5.974-0.597,9.037-0.597   H110.094z M59.869,111.577l39.402,39.402c5.262,5.256,12.174,7.884,19.087,7.884c6.915,0,13.832-2.63,19.099-7.891   c10.513-10.526,10.513-27.653-0.003-38.183l-6.146-6.146h36.187l44.336,44.336c5.263,5.256,12.174,7.884,19.087,7.884   c6.915,0,13.832-2.63,19.099-7.891c10.513-10.526,10.513-27.653-0.003-38.183l-6.146-6.146h36.187l44.333,44.333   c5.261,5.261,12.172,7.891,19.087,7.891c6.915,0,13.833-2.631,19.103-7.894c10.512-10.526,10.512-27.653-0.003-38.183l-5.686-5.686   c35.287,3.974,62.807,33.984,62.807,70.315c0,4.554-3.705,8.259-8.259,8.259h-0.821H24.084h-0.821   c-4.554,0-8.259-3.705-8.259-8.259C15.004,147.538,33.627,121.941,59.869,111.577z M419.69,294.152c0,18.692-15.208,33.9-33.9,33.9   H48.91c-18.698,0-33.91-15.208-33.91-33.9v-19.22c0-4.555,3.706-8.26,8.26-8.26h0.82h88.723l29.304,29.304   c1.406,1.407,3.314,2.197,5.303,2.197c1.989,0,3.897-0.791,5.304-2.197l29.3-29.304H410.61h0.83c4.549,0,8.25,3.705,8.25,8.26   V294.152z"/>
</g>















</svg>
