  <svg class="Tomato" xmlns="http://www.w3.org/2000/svg" viewBox="0 0 95 95">
  <style>

.svg15 {
  fill: #be1e2d;
}
.svg16 {
  fill: #ee2b37;
}
.svg17 {
  fill: #f3714f;
}
.svg18 {
  fill: #f8a689;
}
.svg19 {
  fill: #feda3b;
}
.svg20 {
  fill: #fbc2ab;
}
</style>
    <path class="svg15" d="M115,61.44A46.54,46.54,0,1,1,68.42,14.9,46.54,46.54,0,0,1,115,61.44" transform="translate(-20.67 -13.02)"></path>
    <path class="svg16" d="M113.76,59.56A46.54,46.54,0,1,1,67.22,13a46.54,46.54,0,0,1,46.54,46.54" transform="translate(-20.67 -13.02)"></path>
    <path class="svg17" d="M111.82,59.56A44.6,44.6,0,1,1,67.22,15a44.6,44.6,0,0,1,44.6,44.6" transform="translate(-20.67 -13.02)"></path>
    <polygon class="svg17" points="46.54 46.62 46.56 46.62 46.56 46.61 46.54 46.62"></polygon>
    <polygon class="svg17" points="46.2 46.62 46.54 46.62 46.29 46.47 46.2 46.62"></polygon>
    <polygon class="svg17" points="46.38 46.31 46.29 46.47 46.54 46.62 46.56 46.61 46.38 46.31"></polygon>
    <circle class="svg18" cx="46.66" cy="46.34" r="40.76"></circle>
    <path class="svg17" d="M61.09,50.87c-4.18-3-9.7-6.84-9.14-9.64a2.56,2.56,0,0,1,1.38-1.74c1.26-.55,2.07.75,3.49.47,1.94-.38,1.87-3.1,4.09-3.71,1.22-.33,1.44.43,2.89.07,1.87-.46,2.07-1.88,3.49-1.94.84,0,1.55.52,3,1.62,2.24,1.74,1.93,2.27,3,2.71,2.15.9,3.64-1.2,5.95-.39A4.15,4.15,0,0,1,81.84,41c.75,3.48-5.7,8.07-7.37,9.24-1,.7-2.87,1.93-2.69,2.31.09.18.59.11,1,0l18.9-10.45a4.9,4.9,0,0,0,1.17-7.7,36.05,36.05,0,0,0-50.76-.74,4.91,4.91,0,0,0,.87,7.75L63.69,54c.23,0,.52,0,.6-.2C64.53,53.25,62.42,51.81,61.09,50.87Z" transform="translate(-20.67 -13.02)"></path>
    <path class="svg19" d="M68.43,31.72c-.12.26-.34.66-.55,1A12.71,12.71,0,0,1,67,34a13.57,13.57,0,0,1-.87-1.23,10.57,10.57,0,0,1-.7-1.25c0-.11-1.11-2.59,0-3.64a2.1,2.1,0,0,1,1.39-.47,2.28,2.28,0,0,1,1.61.47C69.44,28.78,68.83,30.87,68.43,31.72Z" transform="translate(-20.67 -13.02)"></path>
    <path class="svg19" d="M81.25,36.44c-.24.17-.63.4-1,.59a12.71,12.71,0,0,1-1.37.63c0-.35-.11-.87-.13-1.5a8.06,8.06,0,0,1,.17-2.59c.16-.6.56-2,1.54-2.25a1.92,1.92,0,0,1,1.31.31A2.65,2.65,0,0,1,83.2,33.1C83.58,34.49,81.94,36,81.25,36.44Z" transform="translate(-20.67 -13.02)"></path>
    <path class="svg19" d="M55.38,37.37a10.66,10.66,0,0,0,1,.41,11.8,11.8,0,0,0,1.36.39c0-.35,0-.84,0-1.41,0,0-.06-.72-.16-1.22-.17-.91-.49-2.59-1.64-2.92a2.24,2.24,0,0,0-2,.58,2.33,2.33,0,0,0-.77,1.35C53,35.91,54.64,37,55.38,37.37Z" transform="translate(-20.67 -13.02)"></path>
    <path class="svg19" d="M74.55,34.83c-.19.22-.52.53-.83.8a12.72,12.72,0,0,1-1.18.93,13.57,13.57,0,0,1-.47-1.43,10.58,10.58,0,0,1-.3-1.4c0-.12-.3-2.8,1.05-3.48a2.1,2.1,0,0,1,1.47,0,2.28,2.28,0,0,1,1.4.93C76.38,32.32,75.18,34.13,74.55,34.83Z" transform="translate(-20.67 -13.02)"></path>
    <path class="svg19" d="M62.47,33.11a10.58,10.58,0,0,1-.18,1,11.65,11.65,0,0,1-.38,1.34c-.28-.17-.68-.44-1.14-.79A7.33,7.33,0,0,1,59,33.06c-.32-.47-1.1-1.58-.66-2.41a1.82,1.82,0,0,1,1-.74,2.51,2.51,0,0,1,1.91-.14C62.51,30.32,62.55,32.34,62.47,33.11Z" transform="translate(-20.67 -13.02)"></path>
    <path class="svg19" d="M49,40.41a10.39,10.39,0,0,0,1.07,0,11.62,11.62,0,0,0,1.4-.17,14,14,0,0,0-.56-1.29s-.32-.65-.59-1.06c-.49-.77-1.4-2.2-2.57-2.05a2.31,2.31,0,0,0-1.6,1.31,2.41,2.41,0,0,0-.22,1.56C46.25,40,48.19,40.37,49,40.41Z" transform="translate(-20.67 -13.02)"></path>
    <path class="svg19" d="M84.9,40.94c-.29,0-.74,0-1.15,0a12.72,12.72,0,0,1-1.49-.2,13.57,13.57,0,0,1,.7-1.33,10.57,10.57,0,0,1,.8-1.19c.08-.09,1.8-2.17,3.23-1.67a2.1,2.1,0,0,1,1.05,1,2.28,2.28,0,0,1,.31,1.65C88,40.5,85.84,40.9,84.9,40.94Z" transform="translate(-20.67 -13.02)"></path>
    <path class="svg19" d="M83.67,36.43" transform="translate(-20.67 -13.02)"></path>
    <path class="svg17" d="M78,59.26c4.64-2.18,10.73-5.08,12.89-3.2a2.56,2.56,0,0,1,.83,2.06c-.13,1.3-1.32,1.83-2.13,2.81-2.54,3,1.27,7.9-.91,10.14-1.51,1.55-4.21.14-5.52,2.07-.45.66-.18.89-.58,2.7s-1,4-2.59,5.37a4.15,4.15,0,0,1-3.67,1c-3.4-1.06-4.21-8.94-4.42-11-.12-1.21-.26-3.45-.68-3.48-.2,0-.39.46-.52.84l-.21,21.6A4.9,4.9,0,0,0,76.68,95a36.05,36.05,0,0,0,25.65-43.82,4.91,4.91,0,0,0-7.17-3.06L74.06,60c-.11.2-.23.47-.12.62C74.28,61.09,76.57,60,78,59.26Z" transform="translate(-20.67 -13.02)"></path>
    <path class="svg19" d="M89.76,74.52c-.17-.24-.41-.62-.61-1a12.72,12.72,0,0,1-.66-1.36A13.55,13.55,0,0,1,90,72a10.57,10.57,0,0,1,1.43,0c.12,0,2.8.31,3.18,1.77a2.1,2.1,0,0,1-.27,1.44,2.28,2.28,0,0,1-1.2,1.17C91.82,76.85,90.31,75.29,89.76,74.52Z" transform="translate(-20.67 -13.02)"></path>
    <path class="svg19" d="M80.51,83.8c0-.26-.06-.67-.07-1a11.78,11.78,0,0,1,0-1.34c.29.13.71.33,1.2.61a7.49,7.49,0,0,1,1.91,1.35,2.61,2.61,0,0,1,1,1.76A1.87,1.87,0,0,1,84,86.48a1.82,1.82,0,0,1-1.68.4C81.08,86.5,80.6,84.56,80.51,83.8Z" transform="translate(-20.67 -13.02)"></path>
    <path class="svg19" d="M92.58,60.19a10.65,10.65,0,0,0-1,.43,11.8,11.8,0,0,0-1.23.7c.25.25.6.58,1,.95,0,0,.56.46,1,.74.77.51,2.2,1.45,3.24.86a2.24,2.24,0,0,0,1-1.81,2.33,2.33,0,0,0-.43-1.5C95.31,59.48,93.35,59.91,92.58,60.19Z" transform="translate(-20.67 -13.02)"></path>
    <path class="svg19" d="M84.28,78.33c-.08-.25-.19-.65-.26-1a11.52,11.52,0,0,1-.2-1.35,12.28,12.28,0,0,1,1.34.27,9.57,9.57,0,0,1,1.23.39c.1,0,2.34,1,2.28,2.38A1.9,1.9,0,0,1,88,80.18a2.07,2.07,0,0,1-1.35.69C85.44,80.89,84.55,79.13,84.28,78.33Z" transform="translate(-20.67 -13.02)"></path>
    <path class="svg19" d="M92.24,69.24a10.59,10.59,0,0,1-.84-.65,11.65,11.65,0,0,1-1-1c.28-.16.71-.39,1.23-.63a7.33,7.33,0,0,1,2.26-.75c.57-.07,1.92-.22,2.44.55A1.82,1.82,0,0,1,96.52,68a2.51,2.51,0,0,1-.77,1.75C94.69,70.59,92.88,69.68,92.24,69.24Z" transform="translate(-20.67 -13.02)"></path>
    <path class="svg19" d="M93.1,53.89a10.39,10.39,0,0,0-.51.94,11.62,11.62,0,0,0-.54,1.3,13.93,13.93,0,0,0,1.4.15s.72,0,1.22,0c.92,0,2.6-.13,3.05-1.23a2.31,2.31,0,0,0-.35-2,2.41,2.41,0,0,0-1.25-1C94.8,51.69,93.54,53.21,93.1,53.89Z" transform="translate(-20.67 -13.02)"></path>
    <path class="svg19" d="M75,84.88c.13-.26.37-.64.6-1a12.72,12.72,0,0,1,.91-1.2A13.56,13.56,0,0,1,77.29,84a10.57,10.57,0,0,1,.64,1.28c0,.11,1,2.64-.14,3.64a2.1,2.1,0,0,1-1.41.41,2.28,2.28,0,0,1-1.59-.54C73.83,87.76,74.53,85.71,75,84.88Z" transform="translate(-20.67 -13.02)"></path>
    <path class="svg17" d="M62.39,69.69c-.52,5.1-1.17,11.82-3.88,12.7a3,3,0,0,1-2.19-.34c-1.54-.78-1.54-2.3-3.34-5.22A9.42,9.42,0,0,0,50.83,74c-2.1-1.51-4-.54-5.21-2.07A4,4,0,0,1,44.94,69c.21-2.26,2-2.44,2.23-4.24.35-2.53-2.91-3.65-2.63-6.77a3.25,3.25,0,0,1,1-2.41c1.57-1.12,4.69.35,9.71,2.71,1.41.66,3.11,1.52,3.33,1.2.11-.16-.19-.57-.46-.87L39.75,47.38a4.9,4.9,0,0,0-7.27,2.78,36.05,36.05,0,0,0,24.4,44.52,4.91,4.91,0,0,0,6.31-4.58l.64-24.21c-.11-.2-.29-.44-.47-.42C62.76,65.53,62.56,68.07,62.39,69.69Z" transform="translate(-20.67 -13.02)"></path>
    <path class="svg19" d="M46.51,74.32c.29,0,.74.09,1.14.17a12.71,12.71,0,0,1,1.46.37,13.57,13.57,0,0,1-.85,1.24,10.57,10.57,0,0,1-.93,1.09c-.09.09-2,1.95-3.4,1.29A2.1,2.1,0,0,1,43,77.34a2.28,2.28,0,0,1-.12-1.67C43.41,74.4,45.58,74.25,46.51,74.32Z" transform="translate(-20.67 -13.02)"></path>
    <path class="svg19" d="M42.85,60.45c.28.09.69.26,1.07.43a12.72,12.72,0,0,1,1.33.71c-.25.25-.63.61-1.12,1A8.06,8.06,0,0,1,42,64c-.58.23-2,.78-2.72.13a1.92,1.92,0,0,1-.54-1.23,2.65,2.65,0,0,1,.31-2C39.88,59.76,42,60.18,42.85,60.45Z" transform="translate(-20.67 -13.02)"></path>
    <path class="svg19" d="M42.53,67.21a9.48,9.48,0,0,1,1,.36,10.92,10.92,0,0,1,1.21.61,11.71,11.71,0,0,1-.83,1.07,8.66,8.66,0,0,1-.88.91c-.08.07-1.9,1.56-3,.68a2.36,2.36,0,0,1-.69-1.27,2.6,2.6,0,0,1,0-1.66C39.89,66.76,41.74,67,42.53,67.21Z" transform="translate(-20.67 -13.02)"></path>
    <path class="svg19" d="M49.78,79.65a10.57,10.57,0,0,1,1-.36A11.65,11.65,0,0,1,52.12,79c0,.33,0,.81-.13,1.38a7.33,7.33,0,0,1-.57,2.31c-.25.51-.84,1.74-1.77,1.77a1.82,1.82,0,0,1-1.14-.51,2.51,2.51,0,0,1-1.06-1.59C47.33,81,49.06,80,49.78,79.65Z" transform="translate(-20.67 -13.02)"></path>
    <path class="svg19" d="M57.35,85.34a10.4,10.4,0,0,0-.32-1A11.62,11.62,0,0,0,56.47,83a13.94,13.94,0,0,0-1.08.9s-.53.49-.86.86c-.61.69-1.72,2-1.25,3A2.31,2.31,0,0,0,55,89a2.41,2.41,0,0,0,1.56-.23C57.74,88.1,57.53,86.13,57.35,85.34Z" transform="translate(-20.67 -13.02)"></path>
    <path class="svg19" d="M43,54c.15.25.36.65.54,1a12.71,12.71,0,0,1,.56,1.4,13.58,13.58,0,0,1-1.5,0,10.57,10.57,0,0,1-1.43-.11c-.12,0-2.78-.5-3-2A2.1,2.1,0,0,1,38.44,53a2.28,2.28,0,0,1,1.28-1.08C41.06,51.55,42.46,53.21,43,54Z" transform="translate(-20.67 -13.02)"></path>
    <path class="svg20" d="M26,69.5a39,39,0,0,1,6.21-36.07A40.48,40.48,0,0,1,48.13,21,46.36,46.36,0,0,0,26,69.5Z" transform="translate(-20.67 -13.02)"></path>
    <path class="svg20" d="M101.91,84a33.08,33.08,0,0,0,7.24-12,35.41,35.41,0,0,0,1.42-15.26,43,43,0,0,0-2.21-10.21A46.09,46.09,0,0,1,101.91,84Z" transform="translate(-20.67 -13.02)"></path>
  </svg>